{
    "asset" : {
        "generator" : "Khronos glTF Blender I/O v1.7.33",
        "version" : "2.0"
    },
    "extensionsUsed" : [
        "KHR_materials_transmission"
    ],
    "scene" : 0,
    "scenes" : [
        {
            "name" : "Scene",
            "nodes" : [
                0
            ]
        }
    ],
    "nodes" : [
        {
            "extras" : {
                "ant_landscape" : {},
                "sparkar_optimization" : {
                    "InvertedReducePercentage" : 0.0
                },
                "spark_blender_addon" : 1
            },
            "mesh" : 0,
            "name" : "Curve"
        }
    ],
    "materials" : [
        {
            "doubleSided" : true,
            "extensions" : {
                "KHR_materials_transmission" : {
                    "transmissionFactor" : 1
                }
            },
            "name" : "Material.001",
            "pbrMetallicRoughness" : {
                "baseColorFactor" : [
                    0.4473998248577118,
                    0.44512417912483215,
                    0.8000000715255737,
                    1
                ],
                "metallicFactor" : 0,
                "roughnessFactor" : 0.5
            }
        }
    ],
    "meshes" : [
        {
            "name" : "Curve",
            "primitives" : [
                {
                    "attributes" : {
                        "POSITION" : 0,
                        "NORMAL" : 1,
                        "TEXCOORD_0" : 2
                    },
                    "indices" : 3,
                    "material" : 0
                }
            ]
        }
    ],
    "accessors" : [
        {
            "bufferView" : 0,
            "componentType" : 5126,
            "count" : 11397,
            "max" : [
                0.11446051299571991,
                0.208444282412529,
                -0.008693065494298935
            ],
            "min" : [
                -0.118597112596035,
                -0.11978890001773834,
                -0.013564925640821457
            ],
            "type" : "VEC3"
        },
        {
            "bufferView" : 1,
            "componentType" : 5126,
            "count" : 11397,
            "type" : "VEC3"
        },
        {
            "bufferView" : 2,
            "componentType" : 5126,
            "count" : 11397,
            "type" : "VEC2"
        },
        {
            "bufferView" : 3,
            "componentType" : 5123,
            "count" : 18444,
            "type" : "SCALAR"
        }
    ],
    "bufferViews" : [
        {
            "buffer" : 0,
            "byteLength" : 136764,
            "byteOffset" : 0
        },
        {
            "buffer" : 0,
            "byteLength" : 136764,
            "byteOffset" : 136764
        },
        {
            "buffer" : 0,
            "byteLength" : 91176,
            "byteOffset" : 273528
        },
        {
            "buffer" : 0,
            "byteLength" : 36888,
            "byteOffset" : 364704
        }
    ],
    "buffers" : [
        {
            "byteLength" : 401592,
            "uri" : "data:application/octet-stream;base64,"
        }
    ]
}
